<svg xmlns="http://www.w3.org/2000/svg" version="1.1" xmlns:xlink="http://www.w3.org/1999/xlink" xmlns:svgjs="http://svgjs.dev/svgjs" width="1000" height="623" viewBox="0 0 1000 623"><g transform="matrix(1,0,0,1,-0.6060606060606233,0.2522267206477409)"><svg viewBox="0 0 396 247" data-background-color="#ffffff" preserveAspectRatio="xMidYMid meet" height="623" width="1000" xmlns="http://www.w3.org/2000/svg" xmlns:xlink="http://www.w3.org/1999/xlink"><g id="tight-bounds" transform="matrix(1,0,0,1,0.2400000000000091,-0.09999999999999432)"><svg viewBox="0 0 395.52 247.2" height="247.2" width="395.52"><g><svg></svg></g><g><svg viewBox="0 0 395.52 247.2" height="247.2" width="395.52"><g transform="matrix(1,0,0,1,134.07993393116317,47.215199999999996)"><svg viewBox="0 0 127.36013213767365 152.7696" height="152.7696" width="127.36013213767365"><g><svg viewBox="0 0 127.36013213767365 152.7696" height="152.7696" width="127.36013213767365"><g><svg viewBox="0 0 127.36013213767365 152.7696" height="152.7696" width="127.36013213767365"><g><svg viewBox="0 0 127.36013213767365 152.7696" height="152.7696" width="127.36013213767365"><g id="textblocktransform"><svg viewBox="0 0 127.36013213767365 152.7696" height="152.7696" width="127.36013213767365" id="textblock"><g><svg viewBox="0 0 127.36013213767365 152.7696" height="152.7696" width="127.36013213767365"><g transform="matrix(1,0,0,1,0,0)"><svg width="127.36013213767365" viewBox="1.8937499523162842 -37.099998474121094 30.92746353149414 37.099998474121094" height="152.7696" data-palette-color="#ee3e38"><path d="M32.2-37.1L32.2-37.1Q32.65-37.1 32.77-36.88 32.9-36.65 32.7-36.3L32.7-36.3 20.85-16.6Q20.6-16.3 20.55-15.93 20.5-15.55 20.5-14.65L20.5-14.65 20.5-1Q20.5 0 19.4 0L19.4 0 15.35 0Q14.85 0 14.68-0.2 14.5-0.4 14.5-0.85L14.5-0.85 14.5-14.6Q14.5-15.15 14.38-15.45 14.25-15.75 14.05-16.1L14.05-16.1 2.05-36.15Q1.8-36.55 1.95-36.83 2.1-37.1 2.65-37.1L2.65-37.1 7.45-37.1Q8-37.1 8.2-36.95 8.4-36.8 8.65-36.4L8.65-36.4 17.35-21.35Q17.65-20.8 17.9-20.8 18.15-20.8 18.4-21.25L18.4-21.25 27.05-36.4Q27.3-36.85 27.5-36.98 27.7-37.1 28.2-37.1L28.2-37.1 32.2-37.1Z" opacity="1" transform="matrix(1,0,0,1,0,0)" fill="#ee3e38" class="wordmark-text-0" data-fill-palette-color="primary" id="text-0"></path></svg></g></svg></g></svg></g></svg></g></svg></g></svg></g></svg></g><path d="M79.139 41.215L79.139 0 326.339 0 326.339 247.2 79.139 247.2 79.139 205.985 92.916 205.985 92.916 233.423 312.562 233.423 312.562 13.777 92.916 13.777 92.916 41.215Z" fill="#ee3e38" stroke="transparent" data-fill-palette-color="primary"></path></svg></g><defs></defs></svg><rect width="395.52" height="247.2" fill="none" stroke="none" visibility="hidden"></rect></g></svg></g></svg>